<?xml version="1.0" encoding="utf-8"?>
<!-- Generator: Adobe Illustrator 15.1.0, SVG Export Plug-In . SVG Version: 6.00 Build 0)  -->
<!DOCTYPE svg PUBLIC "-//W3C//DTD SVG 1.1//EN" "http://www.w3.org/Graphics/SVG/1.1/DTD/svg11.dtd">
<svg version="1.1"
	 id="spaceship" xmlns:dc="http://purl.org/dc/elements/1.1/" xmlns:svg="http://www.w3.org/2000/svg" xmlns:cc="http://creativecommons.org/ns#" xmlns:rdf="http://www.w3.org/1999/02/22-rdf-syntax-ns#"
	 xmlns="http://www.w3.org/2000/svg" xmlns:xlink="http://www.w3.org/1999/xlink" x="0px" y="0px" width="271px" height="271px"
	 viewBox="0 0 271 271" enable-background="new 0 0 271 271" xml:space="preserve">
<circle id="bg" fill="#33495F" fill-opacity="0.1" cx="135.5" cy="150.667" r="109.145"/>
<path fill="#EA5A47" d="M141.516,104.546c10.115,11.647-2.658,22.126-2.658,22.126s25.686-13.259,13.89-29.863
	c-11.019-15.485-19.466-23.179,26.271-49.705C179.018,47.104,107.224,65.036,141.516,104.546"/>
<path fill="#E45136" d="M152.746,4.271c0,0,21.789,21.798-20.667,55.316c-34.046,26.888-7.763,42.219-0.014,59.735
	c-19.874-17.931-34.458-33.715-24.674-48.407C121.752,49.351,161.538,38.896,152.746,4.271"/>
<g>
	<path fill="#7F8C8D" d="M104.24,166.455c0,0-8.014,4.661,5.703,6.238c16.619,1.896,25.112,1.623,43.425-1.842
		c0,0,4.813,3.019,11.539,5.633C123.853,194.08,71.994,175.466,104.24,166.455"/>
	<path fill="#7F8C8D" d="M99.223,143.495c0,0-8.989,6.653,4.739,8.073c17.752,1.83,31.771,1.98,56.03-2.689
		c0,0,3.355,3.402,8.632,5.262C118.987,168.654,63.7,155.285,99.223,143.495"/>
	<path fill="#7F8C8D" d="M195.812,183.438c0,0,5.93,4.888-6.531,8.668c-23.697,7.179-98.63,9.346-119.446,0.285
		c-7.483-3.254,6.549-7.771,10.963-8.722c4.603-0.998,7.234-0.812,7.234-0.812c-8.322-5.859-53.788,11.512-23.095,16.486
		C148.643,212.918,217.525,193.232,195.812,183.438"/>
	<path fill="#7F8C8D" d="M108.093,119.706c0,0-38.115,9.053-13.497,12.34c10.394,1.392,31.115,1.077,50.416-0.541
		c15.775-1.331,31.613-4.159,31.613-4.159s-5.562,2.381-9.586,5.129c-38.705,10.179-113.478,5.444-91.952-4.969
		C93.292,118.708,108.093,119.706,108.093,119.706"/>
	<path fill="#7F8C8D" d="M176.468,157.924c39.347-20.443,21.154-40.093,8.456-37.446c-3.113,0.647-4.499,1.209-4.499,1.209
		s1.153-1.81,3.36-2.594c25.121-8.832,44.439,26.048-8.108,39.862C175.677,158.955,176.287,158.41,176.468,157.924"/>
	<path fill="#7F8C8D" d="M111.96,213.326c37.769,2.418,95.763-1.34,97.136-19.211c0,0-2.639,6.775-31.211,12.154
		c-32.234,6.065-71.993,5.358-95.574,1.471C82.311,207.74,87.138,211.734,111.96,213.326"/>
</g>
</svg>
