<?xml version="1.0" encoding="utf-8"?>
<!-- Generator: Adobe Illustrator 15.1.0, SVG Export Plug-In . SVG Version: 6.00 Build 0)  -->
<!DOCTYPE svg PUBLIC "-//W3C//DTD SVG 1.1//EN" "http://www.w3.org/Graphics/SVG/1.1/DTD/svg11.dtd">
<svg version="1.1"
	 id="spaceship" xmlns:dc="http://purl.org/dc/elements/1.1/" xmlns:svg="http://www.w3.org/2000/svg" xmlns:cc="http://creativecommons.org/ns#" xmlns:rdf="http://www.w3.org/1999/02/22-rdf-syntax-ns#"
	 xmlns="http://www.w3.org/2000/svg" xmlns:xlink="http://www.w3.org/1999/xlink" x="0px" y="0px" width="271px" height="271px"
	 viewBox="0 0 271 271" enable-background="new 0 0 271 271" xml:space="preserve">
<path fill="#7F8C8D" d="M267.5,253.996c0,9.392-7.88,17.004-17.6,17.004H21.1c-9.72,0-17.6-7.612-17.6-17.004V17.004
	C3.5,7.613,11.38,0,21.1,0h228.8c9.72,0,17.6,7.613,17.6,17.004V253.996z"/>
<circle fill="#D35400" cx="36.775" cy="29.772" r="11.275"/>
<circle fill="#F39C12" cx="69.045" cy="29.772" r="11.275"/>
<circle fill="#2ECC71" cx="98.925" cy="29.772" r="11.275"/>
<path fill="#FFFFFF" d="M17.555,61.397c-0.192,0.769-0.305,1.569-0.305,2.397v183.7c0,5.468,4.433,9.9,9.9,9.9H243.85
	c5.469,0,9.9-4.433,9.9-9.9v-183.7c0-0.828-0.113-1.628-0.305-2.397H17.555z"/>
<rect x="31" y="77.897" fill="#E45136" width="68.475" height="163.9"/>
<rect x="98.925" y="77.952" fill="#F46653" width="68.475" height="163.9"/>
<rect x="167.4" y="77.952" fill="#F77E6D" width="68.475" height="163.9"/>
</svg>
